<svg width="20" height="44" viewBox="0 0 20 44" fill="none" xmlns="http://www.w3.org/2000/svg">
<path d="M0.229492 14.2148V8.43652C2.91016 8.31738 4.78662 8.13867 5.85889 7.90039C7.56657 7.52311 8.95654 6.76855 10.0288 5.63672C10.7635 4.8623 11.3195 3.82975 11.6968 2.53906C11.9152 1.76465 12.0244 1.1888 12.0244 0.811523H19.0835V44H10.3862V14.2148H0.229492Z" fill="#FF974B" fill-opacity="0.5"/>
<path d="M0.229492 14.2148H-0.770508V15.2148H0.229492V14.2148ZM0.229492 8.43652L0.185092 7.43751L-0.770508 7.47998V8.43652H0.229492ZM5.85889 7.90039L5.64316 6.92394L5.64196 6.9242L5.85889 7.90039ZM10.0288 5.63672L9.30334 4.94846L9.30286 4.94897L10.0288 5.63672ZM11.6968 2.53906L12.6567 2.81964L12.6592 2.81052L11.6968 2.53906ZM12.0244 0.811523V-0.188477H11.0244V0.811523H12.0244ZM19.0835 0.811523H20.0835V-0.188477H19.0835V0.811523ZM19.0835 44V45H20.0835V44H19.0835ZM10.3862 44H9.38623V45H10.3862V44ZM10.3862 14.2148H11.3862V13.2148H10.3862V14.2148ZM1.22949 14.2148V8.43652H-0.770508V14.2148H1.22949ZM0.273893 9.43554C2.95346 9.31645 4.90903 9.13586 6.07582 8.87658L5.64196 6.9242C4.66421 7.14148 2.86685 7.31832 0.185092 7.43751L0.273893 9.43554ZM6.07461 8.87684C7.95276 8.4619 9.5287 7.61864 10.7548 6.32446L9.30286 4.94897C8.38439 5.91847 7.18038 6.58432 5.64316 6.92394L6.07461 8.87684ZM10.7543 6.32498C11.6231 5.40916 12.246 4.22422 12.6566 2.81963L10.7369 2.2585C10.393 3.43529 9.90389 4.31545 9.30334 4.94846L10.7543 6.32498ZM12.6592 2.81052C12.881 2.02418 13.0244 1.33567 13.0244 0.811523H11.0244C11.0244 1.04193 10.9494 1.50512 10.7343 2.2676L12.6592 2.81052ZM12.0244 1.81152H19.0835V-0.188477H12.0244V1.81152ZM18.0835 0.811523V44H20.0835V0.811523H18.0835ZM19.0835 43H10.3862V45H19.0835V43ZM11.3862 44V14.2148H9.38623V44H11.3862ZM10.3862 13.2148H0.229492V15.2148H10.3862V13.2148Z" fill="black"/>
</svg>
