<svg width="31" height="44" viewBox="0 0 31 44" fill="none" xmlns="http://www.w3.org/2000/svg">
<path d="M0.90625 44C0.985677 40.9023 1.65088 38.0728 2.90186 35.5112C4.11312 32.632 6.97249 29.584 11.48 26.3672C15.3918 23.5674 17.9235 21.5618 19.0752 20.3506C20.8424 18.4642 21.7261 16.3991 21.7261 14.1553C21.7261 12.3285 21.2197 10.8094 20.207 9.59814C19.1943 8.38688 17.7448 7.78125 15.8584 7.78125C13.277 7.78125 11.5197 8.7443 10.5864 10.6704C10.0503 11.7824 9.73258 13.5496 9.6333 15.9722H1.38281C1.52181 12.2987 2.18701 9.33008 3.37842 7.06641C5.64209 2.75749 9.66309 0.603027 15.4414 0.603027C20.0085 0.603027 23.6423 1.87386 26.3428 4.41553C29.0433 6.93734 30.3936 10.2832 30.3936 14.4531C30.3936 17.6501 29.4404 20.4896 27.5342 22.9717C26.2832 24.6198 24.228 26.4565 21.3687 28.4819L17.9731 30.8945C15.8485 32.4036 14.389 33.4958 13.5947 34.1709C12.8203 34.846 12.165 35.6304 11.6289 36.5239H30.4829V44H0.90625Z" fill="#FF974B" fill-opacity="0.5"/>
<path d="M0.90625 44L-0.0934215 43.9744L-0.11972 45H0.90625V44ZM2.90186 35.5112L3.80042 35.9501L3.81273 35.9249L3.82361 35.899L2.90186 35.5112ZM11.48 26.3672L12.0609 27.1812L12.062 27.1804L11.48 26.3672ZM19.0752 20.3506L19.7999 21.0397L19.805 21.0343L19.0752 20.3506ZM10.5864 10.6704L9.6865 10.2344L9.68566 10.2361L10.5864 10.6704ZM9.6333 15.9722V16.9722H10.5932L10.6325 16.0131L9.6333 15.9722ZM1.38281 15.9722L0.383528 15.9344L0.344259 16.9722H1.38281V15.9722ZM3.37842 7.06641L4.26334 7.53215L4.26369 7.53148L3.37842 7.06641ZM26.3428 4.41553L25.6574 5.14373L25.6603 5.1464L26.3428 4.41553ZM27.5342 22.9717L26.7411 22.3626L26.7376 22.3671L27.5342 22.9717ZM21.3687 28.4819L20.7906 27.6659L20.7894 27.6668L21.3687 28.4819ZM17.9731 30.8945L18.5522 31.7098L18.5524 31.7097L17.9731 30.8945ZM13.5947 34.1709L12.947 33.4089L12.9376 33.4171L13.5947 34.1709ZM11.6289 36.5239L10.7714 36.0094L9.86272 37.5239H11.6289V36.5239ZM30.4829 36.5239H31.4829V35.5239H30.4829V36.5239ZM30.4829 44V45H31.4829V44H30.4829ZM1.90592 44.0256C1.982 41.0587 2.61771 38.3718 3.80042 35.9501L2.00329 35.0724C0.684045 37.7737 -0.0106416 40.746 -0.0934215 43.9744L1.90592 44.0256ZM3.82361 35.899C4.92651 33.2774 7.60306 30.3625 12.0609 27.1812L10.8991 25.5532C6.34193 28.8055 3.29973 31.9866 1.9801 35.1235L3.82361 35.899ZM12.062 27.1804C15.963 24.3883 18.5725 22.3305 19.7999 21.0396L18.3505 19.6615C17.2745 20.7932 14.8205 22.7465 10.898 25.554L12.062 27.1804ZM19.805 21.0343C21.7175 18.9928 22.7261 16.6916 22.7261 14.1553H20.7261C20.7261 16.1066 19.9674 17.9356 18.3454 19.6669L19.805 21.0343ZM22.7261 14.1553C22.7261 12.1328 22.1605 10.3756 20.9742 8.95672L19.4398 10.2396C20.279 11.2432 20.7261 12.5241 20.7261 14.1553H22.7261ZM20.9742 8.95672C19.7341 7.47348 17.9773 6.78125 15.8584 6.78125V8.78125C17.5123 8.78125 18.6545 9.30028 19.4398 10.2396L20.9742 8.95672ZM15.8584 6.78125C14.4469 6.78125 13.1862 7.04436 12.1238 7.62659C11.0502 8.21491 10.2372 9.09781 9.6865 10.2344L11.4864 11.1065C11.8689 10.3169 12.4012 9.75522 13.085 9.38049C13.7799 8.99967 14.6885 8.78125 15.8584 8.78125V6.78125ZM9.68566 10.2361C9.05693 11.5401 8.73466 13.4785 8.63414 15.9312L10.6325 16.0131C10.7305 13.6208 11.0437 12.0247 11.4872 11.1047L9.68566 10.2361ZM9.6333 14.9722H1.38281V16.9722H9.6333V14.9722ZM2.3821 16.01C2.51773 12.4253 3.16516 9.61869 4.26334 7.53215L2.4935 6.60066C1.20887 9.04146 0.525885 12.172 0.383528 15.9344L2.3821 16.01ZM4.26369 7.53148C6.31875 3.61966 9.95075 1.60303 15.4414 1.60303V-0.396973C9.37542 -0.396973 4.96543 1.89532 2.49315 6.60133L4.26369 7.53148ZM15.4414 1.60303C19.8158 1.60303 23.1831 2.81496 25.6574 5.14373L27.0281 3.68733C24.1014 0.932757 20.2012 -0.396973 15.4414 -0.396973V1.60303ZM25.6603 5.1464C28.1312 7.45386 29.3936 10.521 29.3936 14.4531H31.3936C31.3936 10.0454 29.9553 6.42081 27.0253 3.68465L25.6603 5.1464ZM29.3936 14.4531C29.3936 17.4349 28.5101 20.0592 26.7411 22.3626L28.3273 23.5808C30.3708 20.92 31.3936 17.8652 31.3936 14.4531H29.3936ZM26.7376 22.3671C25.5764 23.8969 23.616 25.6646 20.7906 27.6659L21.9467 29.298C24.8401 27.2485 26.99 25.3426 28.3307 23.5763L26.7376 22.3671ZM20.7894 27.6668L17.3939 30.0793L18.5524 31.7097L21.9479 29.2971L20.7894 27.6668ZM17.3941 30.0793C15.2704 31.5877 13.7783 32.7024 12.9471 33.409L14.2424 34.9328C14.9997 34.2891 16.4265 33.2196 18.5522 31.7098L17.3941 30.0793ZM12.9376 33.4171C12.0831 34.162 11.3606 35.0274 10.7714 36.0094L12.4864 37.0384C12.9695 36.2333 13.5575 35.53 14.2519 34.9247L12.9376 33.4171ZM11.6289 37.5239H30.4829V35.5239H11.6289V37.5239ZM29.4829 36.5239V44H31.4829V36.5239H29.4829ZM30.4829 43H0.90625V45H30.4829V43Z" fill="black"/>
</svg>
