<svg width="31" height="46" viewBox="0 0 31 46" fill="none" xmlns="http://www.w3.org/2000/svg">
<path d="M8.94824 30.7456C8.94824 32.4731 9.22624 33.9028 9.78223 35.0347C10.8148 37.1196 12.6912 38.1621 15.4116 38.1621C17.0796 38.1621 18.5291 37.5962 19.7603 36.4644C21.0112 35.3127 21.6367 33.6646 21.6367 31.52C21.6367 28.6805 20.485 26.7842 18.1816 25.8311C16.8711 25.2949 14.806 25.0269 11.9863 25.0269V18.9507C14.7464 18.911 16.6725 18.6429 17.7646 18.1465C19.651 17.3125 20.5942 15.6247 20.5942 13.083C20.5942 11.4349 20.1077 10.0946 19.1348 9.06201C18.1816 8.02946 16.8314 7.51318 15.084 7.51318C13.0785 7.51318 11.5991 8.1486 10.646 9.41943C9.71273 10.6903 9.26595 12.388 9.30566 14.5127H1.38281C1.46224 12.3682 1.82959 10.3328 2.48486 8.40674C3.17985 6.71891 4.27197 5.16016 5.76123 3.73047C6.87321 2.71777 8.19368 1.94336 9.72266 1.40723C11.2516 0.871094 13.1281 0.603027 15.3521 0.603027C19.4823 0.603027 22.8083 1.67529 25.3301 3.81982C27.8717 5.9445 29.1426 8.80387 29.1426 12.3979C29.1426 14.9396 28.388 17.0841 26.8789 18.8315C25.9258 19.9237 24.9329 20.6683 23.9004 21.0654C24.6748 21.0654 25.7868 21.7306 27.2363 23.061C29.4007 25.0666 30.4829 27.8068 30.4829 31.2817C30.4829 34.9354 29.2121 38.1522 26.6704 40.9321C24.1486 43.6922 20.4056 45.0723 15.4414 45.0723C9.32552 45.0723 5.07617 43.0767 2.69336 39.0854C1.44238 36.9608 0.747396 34.1808 0.608398 30.7456H8.94824Z" fill="#FF974B" fill-opacity="0.5"/>
<path d="M8.94824 30.7456H9.94824V29.7456H8.94824V30.7456ZM9.78223 35.0347L8.88467 35.4756L8.8861 35.4785L9.78223 35.0347ZM19.7603 36.4644L20.4371 37.2005L20.4376 37.2001L19.7603 36.4644ZM18.1816 25.8311L18.564 24.907L18.5603 24.9055L18.1816 25.8311ZM11.9863 25.0269H10.9863V26.0269H11.9863V25.0269ZM11.9863 18.9507L11.9719 17.9508L10.9863 17.965V18.9507H11.9863ZM17.7646 18.1465L17.3603 17.2318L17.3508 17.2361L17.7646 18.1465ZM19.1348 9.06201L18.3999 9.74033L18.407 9.74781L19.1348 9.06201ZM10.646 9.41943L9.84596 8.8194L9.83999 8.82752L10.646 9.41943ZM9.30566 14.5127V15.5127H10.3245L10.3055 14.494L9.30566 14.5127ZM1.38281 14.5127L0.383498 14.4757L0.34509 15.5127H1.38281V14.5127ZM2.48486 8.40674L1.56019 8.02599L1.54825 8.05498L1.53815 8.08466L2.48486 8.40674ZM5.76123 3.73047L5.0879 2.99113L5.07818 2.99998L5.0687 3.00908L5.76123 3.73047ZM25.3301 3.81982L24.6822 4.58164L24.6887 4.58706L25.3301 3.81982ZM26.8789 18.8315L27.6323 19.4891L27.6357 19.4852L26.8789 18.8315ZM23.9004 21.0654L23.5414 20.1321L23.9004 22.0654V21.0654ZM27.2363 23.061L27.916 22.3275L27.9125 22.3243L27.2363 23.061ZM26.6704 40.9321L25.9324 40.2574L25.9322 40.2576L26.6704 40.9321ZM2.69336 39.0854L1.83162 39.5928L1.83474 39.5981L2.69336 39.0854ZM0.608398 30.7456V29.7456H-0.432882L-0.390784 30.786L0.608398 30.7456ZM7.94824 30.7456C7.94824 32.5725 8.24111 34.1655 8.88467 35.4756L10.6798 34.5938C10.2114 33.6402 9.94824 32.3738 9.94824 30.7456H7.94824ZM8.8861 35.4785C9.48447 36.6867 10.3478 37.6263 11.4783 38.2544C12.5997 38.8774 13.926 39.1621 15.4116 39.1621V37.1621C14.1768 37.1621 13.2047 36.9256 12.4496 36.5061C11.7037 36.0917 11.1125 35.4676 10.6784 34.5909L8.8861 35.4785ZM15.4116 39.1621C17.331 39.1621 19.0219 38.5015 20.4371 37.2005L19.0835 35.7282C18.0364 36.6908 16.8282 37.1621 15.4116 37.1621V39.1621ZM20.4376 37.2001C21.9453 35.812 22.6367 33.8662 22.6367 31.52H20.6367C20.6367 33.4629 20.0772 34.8133 19.0829 35.7287L20.4376 37.2001ZM22.6367 31.52C22.6367 29.9676 22.3217 28.5918 21.6277 27.449C20.928 26.2969 19.8868 25.4544 18.564 24.907L17.7993 26.7551C18.7799 27.1608 19.4662 27.743 19.9182 28.4872C20.3759 29.2408 20.6367 30.2329 20.6367 31.52H22.6367ZM18.5603 24.9055C17.0613 24.2923 14.8328 24.0269 11.9863 24.0269V26.0269C14.7791 26.0269 16.6809 26.2976 17.803 26.7566L18.5603 24.9055ZM12.9863 25.0269V18.9507H10.9863V25.0269H12.9863ZM12.0007 19.9506C14.7648 19.9108 16.879 19.6475 18.1785 19.0569L17.3508 17.2361C16.4661 17.6383 14.728 17.9111 11.9719 17.9508L12.0007 19.9506ZM18.169 19.0611C19.2964 18.5626 20.1751 17.7892 20.7598 16.7429C21.3369 15.7103 21.5942 14.4726 21.5942 13.083H19.5942C19.5942 14.2351 19.38 15.1121 19.0139 15.7673C18.6554 16.4089 18.1192 16.8963 17.3603 17.2319L18.169 19.0611ZM21.5942 13.083C21.5942 11.2241 21.0385 9.62413 19.8626 8.37621L18.407 9.74781C19.177 10.565 19.5942 11.6457 19.5942 13.083H21.5942ZM19.8696 8.38373C18.6828 7.09808 17.0376 6.51318 15.084 6.51318V8.51318C16.6251 8.51318 17.6805 8.96084 18.4 9.74029L19.8696 8.38373ZM15.084 6.51318C12.855 6.51318 11.0368 7.23173 9.846 8.81943L11.446 10.0194C12.1615 9.06547 13.3019 8.51318 15.084 8.51318V6.51318ZM9.83999 8.82752C8.73832 10.3277 8.26344 12.263 8.30584 14.5314L10.3055 14.494C10.2685 12.513 10.6871 11.0529 11.452 10.0113L9.83999 8.82752ZM9.30566 13.5127H1.38281V15.5127H9.30566V13.5127ZM2.38213 14.5497C2.45816 12.4969 2.80926 10.558 3.43158 8.72882L1.53815 8.08466C0.849918 10.1076 0.466323 12.2394 0.383498 14.4757L2.38213 14.5497ZM3.40954 8.78749C4.04513 7.24391 5.05159 5.79795 6.45376 4.45186L5.0687 3.00908C3.49236 4.52237 2.31457 6.19391 1.56019 8.02599L3.40954 8.78749ZM6.43456 4.46981C7.4398 3.55433 8.64139 2.84607 10.0536 2.35089L9.39176 0.463559C7.74598 1.04065 6.30662 1.88122 5.0879 2.99113L6.43456 4.46981ZM10.0536 2.35089C11.4448 1.86307 13.2018 1.60303 15.3521 1.60303V-0.396973C13.0544 -0.396973 11.0585 -0.120883 9.39176 0.463559L10.0536 2.35089ZM15.3521 1.60303C19.3056 1.60303 22.3827 2.62606 24.6823 4.58162L25.9779 3.05803C23.2339 0.724524 19.659 -0.396973 15.3521 -0.396973V1.60303ZM24.6887 4.58706C26.982 6.50413 28.1426 9.07153 28.1426 12.3979H30.1426C30.1426 8.53622 28.7615 5.38486 25.9714 3.05259L24.6887 4.58706ZM28.1426 12.3979C28.1426 14.7256 27.4581 16.6309 26.1221 18.1779L27.6357 19.4852C29.3179 17.5374 30.1426 15.1536 30.1426 12.3979H28.1426ZM26.1255 18.174C25.2473 19.1802 24.3822 19.8087 23.5414 20.1321L24.2594 21.9988C25.4837 21.5279 26.6042 20.6671 27.6323 19.4891L26.1255 18.174ZM23.9004 22.0654C24.0229 22.0654 24.3082 22.1272 24.8018 22.4225C25.2779 22.7073 25.8625 23.1575 26.5601 23.7978L27.9125 22.3243C27.1606 21.6342 26.4645 21.0866 25.8286 20.7062C25.2102 20.3362 24.5523 20.0654 23.9004 20.0654V22.0654ZM26.5567 23.7945C28.4804 25.5771 29.4829 28.0313 29.4829 31.2817H31.4829C31.4829 27.5823 30.3211 24.5561 27.916 22.3275L26.5567 23.7945ZM29.4829 31.2817C29.4829 34.6772 28.3113 37.6554 25.9324 40.2574L27.4084 41.6069C30.1129 38.6489 31.4829 35.1935 31.4829 31.2817H29.4829ZM25.9322 40.2576C23.6564 42.7484 20.2214 44.0723 15.4414 44.0723V46.0723C20.5898 46.0723 24.6408 44.6361 27.4087 41.6067L25.9322 40.2576ZM15.4414 44.0723C9.55122 44.0723 5.69782 42.1671 3.55198 38.5728L1.83474 39.5981C4.45452 43.9862 9.09982 46.0723 15.4414 46.0723V44.0723ZM3.55509 38.5781C2.41412 36.6402 1.7424 34.0372 1.60758 30.7052L-0.390784 30.786C-0.247611 34.3245 0.470646 37.2813 1.83163 39.5928L3.55509 38.5781ZM0.608398 31.7456H8.94824V29.7456H0.608398V31.7456Z" fill="black"/>
</svg>
