<svg width="31" height="43" viewBox="0 0 31 43" fill="none" xmlns="http://www.w3.org/2000/svg">
<path d="M30.8999 33.707H26.0151V43H17.7051V33.707H0.608398V26.2905L16.4839 0.0795898H26.0151V27.0649H30.8999V33.707ZM17.7051 27.0649V8.41943L6.89307 27.0649H17.7051Z" fill="#FF974B" fill-opacity="0.5"/>
<path d="M30.8999 33.707V34.707H31.8999V33.707H30.8999ZM26.0151 33.707V32.707H25.0151V33.707H26.0151ZM26.0151 43V44H27.0151V43H26.0151ZM17.7051 43H16.7051V44H17.7051V43ZM17.7051 33.707H18.7051V32.707H17.7051V33.707ZM0.608398 33.707H-0.391602V34.707H0.608398V33.707ZM0.608398 26.2905L-0.246943 25.7725L-0.391602 26.0113V26.2905H0.608398ZM16.4839 0.0795898V-0.92041H15.9204L15.6285 -0.438475L16.4839 0.0795898ZM26.0151 0.0795898H27.0151V-0.92041H26.0151V0.0795898ZM26.0151 27.0649H25.0151V28.0649H26.0151V27.0649ZM30.8999 27.0649H31.8999V26.0649H30.8999V27.0649ZM17.7051 27.0649V28.0649H18.7051V27.0649H17.7051ZM17.7051 8.41943H18.7051V4.70144L16.84 7.9178L17.7051 8.41943ZM6.89307 27.0649L6.02799 26.5633L5.15723 28.0649H6.89307V27.0649ZM30.8999 32.707H26.0151V34.707H30.8999V32.707ZM25.0151 33.707V43H27.0151V33.707H25.0151ZM26.0151 42H17.7051V44H26.0151V42ZM18.7051 43V33.707H16.7051V43H18.7051ZM17.7051 32.707H0.608398V34.707H17.7051V32.707ZM1.6084 33.707V26.2905H-0.391602V33.707H1.6084ZM1.46374 26.8086L17.3392 0.597654L15.6285 -0.438475L-0.246943 25.7725L1.46374 26.8086ZM16.4839 1.07959H26.0151V-0.92041H16.4839V1.07959ZM25.0151 0.0795898V27.0649H27.0151V0.0795898H25.0151ZM26.0151 28.0649H30.8999V26.0649H26.0151V28.0649ZM29.8999 27.0649V33.707H31.8999V27.0649H29.8999ZM18.7051 27.0649V8.41943H16.7051V27.0649H18.7051ZM16.84 7.9178L6.02799 26.5633L7.75815 27.5666L18.5702 8.92107L16.84 7.9178ZM6.89307 28.0649H17.7051V26.0649H6.89307V28.0649Z" fill="black"/>
</svg>
