<svg width="31" height="45" viewBox="0 0 31 45" fill="none" xmlns="http://www.w3.org/2000/svg">
<path d="M9.06738 31.4434C9.40495 33.29 10.0503 34.7197 11.0034 35.7324C11.9565 36.7253 13.3465 37.2217 15.1733 37.2217C17.2782 37.2217 18.8766 36.487 19.9688 35.0176C21.0807 33.5283 21.6367 31.6618 21.6367 29.418C21.6367 27.2139 21.1204 25.3573 20.0879 23.8481C19.0553 22.3192 17.4469 21.5547 15.2627 21.5547C14.2301 21.5547 13.3366 21.6838 12.582 21.9419C11.2516 22.4185 10.2489 23.3021 9.57373 24.5928L1.94873 24.2354L4.98682 0.377441H28.7852V7.58545H11.1226L9.57373 17.0273C10.8843 16.1735 11.9069 15.6076 12.6416 15.3296C13.8727 14.8729 15.3719 14.6445 17.1392 14.6445C20.7134 14.6445 23.8309 15.8459 26.4917 18.2485C29.1525 20.6512 30.4829 24.146 30.4829 28.7329C30.4829 32.7241 29.2021 36.2884 26.6406 39.4258C24.0791 42.5632 20.2467 44.1318 15.1436 44.1318C11.0332 44.1318 7.65755 43.0298 5.0166 40.8257C2.37565 38.6216 0.90625 35.4941 0.608398 31.4434H9.06738Z" fill="#FF974B" fill-opacity="0.5"/>
<path d="M9.06738 31.4434L10.0511 31.2635L9.90116 30.4434H9.06738V31.4434ZM11.0034 35.7324L10.2752 36.4178L10.282 36.425L11.0034 35.7324ZM19.9688 35.0176L19.1675 34.4193L19.1662 34.4211L19.9688 35.0176ZM20.0879 23.8481L19.2592 24.4078L19.2626 24.4128L20.0879 23.8481ZM12.582 21.9419L12.2583 20.9957L12.2516 20.9981L12.2448 21.0005L12.582 21.9419ZM9.57373 24.5928L9.52691 25.5917L10.1641 25.6215L10.4598 25.0563L9.57373 24.5928ZM1.94873 24.2354L0.956741 24.109L0.819913 25.1835L1.90191 25.2343L1.94873 24.2354ZM4.98682 0.377441V-0.622559H4.10608L3.99483 0.251121L4.98682 0.377441ZM28.7852 0.377441H29.7852V-0.622559H28.7852V0.377441ZM28.7852 7.58545V8.58545H29.7852V7.58545H28.7852ZM11.1226 7.58545V6.58545H10.2732L10.1357 7.42357L11.1226 7.58545ZM9.57373 17.0273L8.58692 16.8655L8.2199 19.1029L10.1196 17.8652L9.57373 17.0273ZM12.6416 15.3296L12.2938 14.392L12.2877 14.3943L12.6416 15.3296ZM5.0166 40.8257L4.37585 41.5934L5.0166 40.8257ZM0.608398 31.4434V30.4434H-0.467831L-0.388909 31.5167L0.608398 31.4434ZM8.08368 31.6232C8.44411 33.5949 9.15124 35.2236 10.2752 36.4178L11.7316 35.0471C10.9493 34.2159 10.3658 32.9852 10.0511 31.2635L8.08368 31.6232ZM10.282 36.425C11.4796 37.6724 13.1671 38.2217 15.1733 38.2217V36.2217C13.526 36.2217 12.4335 35.7781 11.7248 35.0399L10.282 36.425ZM15.1733 38.2217C17.5404 38.2217 19.4605 37.3778 20.7713 35.6141L19.1662 34.4211C18.2928 35.5962 17.0159 36.2217 15.1733 36.2217V38.2217ZM20.77 35.6159C22.036 33.9204 22.6367 31.8316 22.6367 29.418H20.6367C20.6367 31.492 20.1255 33.1363 19.1675 34.4193L20.77 35.6159ZM22.6367 29.418C22.6367 27.0544 22.0812 24.9905 20.9132 23.2835L19.2626 24.4128C20.1597 25.724 20.6367 27.3733 20.6367 29.418H22.6367ZM20.9166 23.2885C19.6619 21.4306 17.7089 20.5547 15.2627 20.5547V22.5547C17.185 22.5547 18.4487 23.2077 19.2592 24.4078L20.9166 23.2885ZM15.2627 20.5547C14.1507 20.5547 13.1427 20.6932 12.2583 20.9957L12.9057 22.8881C13.5305 22.6743 14.3095 22.5547 15.2627 22.5547V20.5547ZM12.2448 21.0005C10.67 21.5646 9.47525 22.6235 8.68763 24.1293L10.4598 25.0563C11.0225 23.9806 11.8333 23.2723 12.9193 22.8833L12.2448 21.0005ZM9.62055 23.5939L1.99555 23.2365L1.90191 25.2343L9.52691 25.5917L9.62055 23.5939ZM2.94072 24.3617L5.97881 0.503762L3.99483 0.251121L0.956741 24.109L2.94072 24.3617ZM4.98682 1.37744H28.7852V-0.622559H4.98682V1.37744ZM27.7852 0.377441V7.58545H29.7852V0.377441H27.7852ZM28.7852 6.58545H11.1226V8.58545H28.7852V6.58545ZM10.1357 7.42357L8.58692 16.8655L10.5605 17.1892L12.1094 7.74732L10.1357 7.42357ZM10.1196 17.8652C11.4168 17.0201 12.3656 16.5032 12.9955 16.2649L12.2877 14.3943C11.4482 14.712 10.3517 15.3269 9.02785 16.1895L10.1196 17.8652ZM12.9894 16.2672C14.0781 15.8633 15.4522 15.6445 17.1392 15.6445V13.6445C15.2917 13.6445 13.6673 13.8825 12.2938 14.392L12.9894 16.2672ZM17.1392 15.6445C20.4649 15.6445 23.3439 16.7534 25.8215 18.9907L27.1619 17.5063C24.3179 14.9383 20.9618 13.6445 17.1392 13.6445V15.6445ZM25.8215 18.9907C28.217 21.1539 29.4829 24.3447 29.4829 28.7329H31.4829C31.4829 23.9473 30.088 20.1486 27.1619 17.5063L25.8215 18.9907ZM29.4829 28.7329C29.4829 32.4899 28.2841 35.8316 25.866 38.7933L27.4152 40.0582C30.1202 36.7452 31.4829 32.9583 31.4829 28.7329H29.4829ZM25.866 38.7933C23.5424 41.6394 20.0315 43.1318 15.1436 43.1318V45.1318C20.462 45.1318 24.6158 43.4869 27.4152 40.0582L25.866 38.7933ZM15.1436 43.1318C11.2197 43.1318 8.08503 42.084 5.65735 40.0579L4.37585 41.5934C7.23007 43.9755 10.8467 45.1318 15.1436 45.1318V43.1318ZM5.65735 40.0579C3.26185 38.0587 1.88757 35.2034 1.60571 31.37L-0.388909 31.5167C-0.0750729 35.7849 1.48945 39.1845 4.37585 41.5934L5.65735 40.0579ZM0.608398 32.4434H9.06738V30.4434H0.608398V32.4434Z" fill="black"/>
</svg>
