<svg width="91" height="91" viewBox="0 0 91 91" fill="none" xmlns="http://www.w3.org/2000/svg">
<g clip-path="url(#clip0_2682_73)">
<path d="M68.383 43.4056V42.8896V41.7266V32.7706V32.7566H68.369L53.631 18.9746H33.847V20.5106V26.3946H11.195V27.3366V27.9176V71.8976H9.12598V72.8586H12.486V72.3786H14.526V72.8586H17.886V72.3786H19.926V72.8586H23.286V72.3786H25.326V72.8586H28.686V72.3786H30.726V72.8586H34.086V72.3786H35.421H36.126V72.8586H39.486V72.3786H41.526V72.8586H44.886V72.3786H46.926V72.8586H50.286V72.3786H52.326V72.8586H55.685V72.3786H57.726V72.8586H61.085V72.3786H63.125V72.8586H66.485V72.3786H68.381V49.0076H65.802V69.8016H37.505V21.5536H53.024L65.804 33.4426V41.7036V42.8636V43.3806V43.8966H40.814V47.9896H66.846H68.382H73.144V43.9236H68.382L68.383 43.4056ZM13.774 30.0026H33.847V69.8006H13.774V30.0026Z" fill="black"/>
<path d="M29.5737 33.8164H24.1787V42.4374H29.5737V33.8164Z" fill="black"/>
<path d="M46.2095 60.4902H40.8135V62.3632H46.2095V60.4902Z" fill="black"/>
<path d="M61.6577 50.582H52.4307V67.685H61.6577V50.582Z" fill="black"/>
<path d="M22.438 33.8164H17.042V42.4374H22.438V33.8164Z" fill="black"/>
<path d="M29.561 43.7285H17.042V45.5995H29.561V43.7285Z" fill="black"/>
<path d="M29.5737 50.582H24.1787V59.202H29.5737V50.582Z" fill="black"/>
<path d="M22.438 50.582H17.042V59.202H22.438V50.582Z" fill="black"/>
<path d="M29.561 60.4902H17.042V62.3632H29.561V60.4902Z" fill="black"/>
<path d="M53.3335 27.918H47.9385V36.541H53.3335V27.918Z" fill="black"/>
<path d="M46.1977 50.582H40.8027V59.202H46.1977V50.582Z" fill="black"/>
<path d="M53.3335 37.8301H40.8135V39.7011H53.3335V37.8301Z" fill="black"/>
<path d="M46.2095 27.918H40.8135V36.541H46.2095V27.918Z" fill="black"/>
<path d="M23.2858 14.2383H19.9258V15.1993H23.2858V14.2383Z" fill="black"/>
<path d="M28.6852 14.2383H25.3252V15.1993H28.6852V14.2383Z" fill="black"/>
<path d="M77.2858 14.2383H73.9258V15.1993H77.2858V14.2383Z" fill="black"/>
<path d="M17.8854 14.2383H14.5254V15.1993H17.8854V14.2383Z" fill="black"/>
<path d="M44.8854 14.2383H41.5254V15.1993H44.8854V14.2383Z" fill="black"/>
<path d="M50.2858 14.2383H46.9258V15.1993H50.2858V14.2383Z" fill="black"/>
<path d="M39.486 14.2383H36.126V15.1993H39.486V14.2383Z" fill="black"/>
<path d="M55.6842 14.2383H52.3252V15.1993H55.6842V14.2383Z" fill="black"/>
<path d="M88.0856 14.2383H84.7266V15.1993H88.0856V14.2383Z" fill="black"/>
<path d="M7.08559 14.2383H3.72559V15.1993H7.08559V14.2383Z" fill="black"/>
<path d="M61.0856 14.2383H57.7266V15.1993H61.0856V14.2383Z" fill="black"/>
<path d="M71.8854 14.2383H68.5244V15.1993H71.8854V14.2383Z" fill="black"/>
<path d="M66.486 14.2383H63.126V15.1993H66.486V14.2383Z" fill="black"/>
<path d="M88.0856 71.8984H84.7266V72.8594H88.0856V71.8984Z" fill="black"/>
<path d="M77.2858 71.8984H73.9258V72.8594H77.2858V71.8984Z" fill="black"/>
<path d="M7.08559 71.8984H3.72559V72.8594H7.08559V71.8984Z" fill="black"/>
<path d="M79.3257 72.4014H78.7227V75.7634H79.6827V72.8594H82.6857V71.8984H79.3257V72.4014Z" fill="black"/>
<path d="M71.8854 71.8984H68.5244V72.8594H71.8854V71.8984Z" fill="black"/>
<path d="M79.6827 61.6016H78.7227V64.9626H79.6827V61.6016Z" fill="black"/>
<path d="M79.6827 67.002H78.7227V70.362H79.6827V67.002Z" fill="black"/>
<path d="M79.6827 15.199H82.6857V14.238H79.6827V13.002H78.7227V16.362H79.6827V15.199Z" fill="black"/>
<path d="M79.6827 23.8008H78.7227V27.1608H79.6827V23.8008Z" fill="black"/>
<path d="M79.6827 29.2012H78.7227V32.5622H79.6827V29.2012Z" fill="black"/>
<path d="M79.6827 34.6016H78.7227V37.9626H79.6827V34.6016Z" fill="black"/>
<path d="M79.6827 50.8008H78.7227V54.1608H79.6827V50.8008Z" fill="black"/>
<path d="M79.6827 7.60156H78.7227V10.9626H79.6827V7.60156Z" fill="black"/>
<path d="M79.6827 77.8008H78.7227V81.1118H79.6827V77.8008Z" fill="black"/>
<path d="M79.6827 18.4004H78.7227V21.7614H79.6827V18.4004Z" fill="black"/>
<path d="M79.6827 45.4004H78.7227V48.7614H79.6827V45.4004Z" fill="black"/>
<path d="M79.6827 56.2012H78.7227V59.5622H79.6827V56.2012Z" fill="black"/>
<path d="M32.0416 17.6249C32.0416 17.8899 32.2566 18.1049 32.5216 18.1049C32.7866 18.1049 33.0016 17.8889 33.0016 17.6249V15.1989H34.0846V14.2379H33.0016V8.56789C33.0016 8.30289 32.7866 8.08789 32.5216 8.08789C32.2566 8.08789 32.0416 8.30389 32.0416 8.56789V14.2379H30.7256V15.1989H32.0416V17.6249Z" fill="black"/>
<path d="M11.198 17.6249C11.198 17.8899 11.413 18.1049 11.678 18.1049C11.943 18.1049 12.158 17.8889 12.158 17.6249V15.1989H12.486V14.2379H12.158V8.56789C12.158 8.30289 11.943 8.08789 11.678 8.08789C11.413 8.08789 11.198 8.30389 11.198 8.56789V14.2379H9.12598V15.1989H11.198V17.6249Z" fill="black"/>
<path d="M75.2354 43.248V44.209H85.2533V43.248H79.6824V40.002H78.7224V43.248H75.2354Z" fill="black"/>
<path d="M62.7008 77.8633C62.4358 77.8633 62.2218 78.0793 62.2218 78.3433V80.1503H52.7598V78.3433C52.7598 78.0783 52.5448 77.8633 52.2798 77.8633C52.0148 77.8633 51.7998 78.0793 51.7998 78.3433V82.9153C51.7998 83.1803 52.0148 83.3953 52.2798 83.3953C52.5448 83.3953 52.7598 83.1793 52.7598 82.9153V81.1103H62.2218V82.9153C62.2218 83.1803 62.4368 83.3953 62.7008 83.3953C62.9668 83.3953 63.1808 83.1793 63.1808 82.9153V78.3433C63.1818 78.0793 62.9668 77.8633 62.7008 77.8633Z" fill="black"/>
</g>
<defs>
<clipPath id="clip0_2682_73">
<rect width="91" height="91" fill="white"/>
</clipPath>
</defs>
</svg>
