<svg width="77" height="52" viewBox="0 0 77 52" fill="none" xmlns="http://www.w3.org/2000/svg">
<path d="M75.7736 16.4954L59.0947 1.44759C58.2932 0.738806 57.2156 0.341797 56.0933 0.341797C54.971 0.341797 53.8934 0.738806 53.0919 1.44759L50.7623 3.54939C50.0134 4.24134 49.5789 5.1613 49.5445 6.12794C49.5101 7.09459 49.8783 8.03779 50.5765 8.77165C49.5475 9.55128 48.3514 10.1311 47.0628 10.475C45.7743 10.8189 44.421 10.9194 43.0874 10.7703C40.5918 10.5004 38.0636 10.909 35.827 11.9437H35.727L30.0101 11.2861C29.3706 11.2154 28.7763 10.9518 28.3236 10.5382L26.4228 8.82323C27.1329 8.09095 27.5111 7.14411 27.482 6.17146C27.4529 5.1988 27.0185 4.27178 26.2655 3.57518L23.9359 1.47338C23.1344 0.764595 22.0569 0.367586 20.9346 0.367586C19.8123 0.367586 18.7347 0.764595 17.9332 1.47338L1.22566 16.4954C0.440043 17.2185 0 18.1907 0 19.2033C0 20.2158 0.440043 21.188 1.22566 21.9111L3.55528 24.0129C4.32739 24.6922 5.3549 25.0841 6.43298 25.1104C7.51107 25.1367 8.56054 24.7955 9.37219 24.1548L13.031 27.4428C13.5877 27.9585 13.9909 28.5928 14.2029 29.2868C14.9571 31.8106 16.4362 34.1101 18.4906 35.9532C18.1058 36.6054 17.9146 37.3364 17.9357 38.0751C17.9568 38.8137 18.1895 39.5349 18.6111 40.1684C19.0327 40.8019 19.6288 41.3261 20.3415 41.6901C21.0542 42.0542 21.8592 42.2455 22.6782 42.2457C22.6744 42.8105 22.7949 43.3704 23.0328 43.8929C23.2706 44.4154 23.621 44.8901 24.0637 45.2895C24.5064 45.6889 25.0326 46.0051 25.6117 46.2197C26.1909 46.4343 26.8114 46.543 27.4375 46.5396C27.4511 47.6842 27.9647 48.7777 28.8667 49.5827C29.5856 50.2328 30.5182 50.6557 31.5254 50.7881C32.5326 50.9206 33.5603 50.7556 34.455 50.3176L34.7122 50.5497C35.2736 51.0601 35.9689 51.4343 36.7335 51.6375C37.498 51.8406 38.3071 51.8662 39.0855 51.7119C39.864 51.5575 40.5866 51.2282 41.1863 50.7545C41.786 50.2809 42.2433 49.6782 42.5157 49.0024L43.1017 49.5311C43.5427 49.9315 44.0671 50.2492 44.6448 50.4661C45.2224 50.6829 45.8419 50.7945 46.4675 50.7945C47.0932 50.7945 47.7126 50.6829 48.2903 50.4661C48.8679 50.2492 49.3923 49.9315 49.8333 49.5311C50.3058 49.0927 50.6624 48.5638 50.8767 47.9837L51.577 48.6156C52.4696 49.4209 53.6804 49.8734 54.9428 49.8734C56.2052 49.8734 57.4159 49.4209 58.3086 48.6156C59.2013 47.8102 59.7028 46.7179 59.7028 45.5789C59.7028 44.44 59.2013 43.3476 58.3086 42.5423L57.6083 41.9104C58.2501 41.7041 58.8316 41.369 59.309 40.9305C59.7585 40.5364 60.1163 40.0654 60.3617 39.5452C60.6071 39.0249 60.7351 38.4657 60.7383 37.9003C60.7348 37.2211 60.5484 36.5529 60.1952 35.9532L60.4667 35.6953C62.3239 34.0362 63.5839 31.9109 64.0826 29.5962C64.4738 27.7652 65.4703 26.0839 66.9411 24.7737L67.67 24.1161C68.4816 24.7568 69.5311 25.098 70.6092 25.0717C71.6873 25.0454 72.7148 24.6536 73.4869 23.9742L75.8165 21.8724C76.5836 21.1461 77.0079 20.1793 76.9999 19.1761C76.9919 18.1729 76.5522 17.2117 75.7736 16.4954ZM5.5276 22.1948L3.19798 20.1446C2.93178 19.903 2.78237 19.5762 2.78237 19.2355C2.78237 18.8949 2.93178 18.568 3.19798 18.3265L19.9198 3.22703C20.0533 3.10023 20.214 2.99926 20.3922 2.93026C20.5703 2.86127 20.7621 2.82569 20.956 2.82569C21.1499 2.82569 21.3417 2.86127 21.5198 2.93026C21.6979 2.99926 21.8587 3.10023 21.9922 3.22703L24.2075 5.32883C24.348 5.44929 24.4599 5.59428 24.5364 5.755C24.6129 5.91571 24.6523 6.08878 24.6523 6.26368C24.6523 6.43857 24.6129 6.61164 24.5364 6.77236C24.4599 6.93307 24.348 7.07806 24.2075 7.19852L7.59996 22.1948C7.46645 22.3216 7.30573 22.4226 7.1276 22.4916C6.94947 22.5606 6.75764 22.5961 6.56378 22.5961C6.36993 22.5961 6.1781 22.5606 5.99996 22.4916C5.82183 22.4226 5.66112 22.3216 5.5276 22.1948ZM21.349 39.2413C21.1571 39.0741 21.0045 38.8738 20.9002 38.6523C20.796 38.4307 20.7423 38.1925 20.7423 37.9518C20.7423 37.7112 20.796 37.473 20.9002 37.2514C21.0045 37.0299 21.1571 36.8296 21.349 36.6624C21.7206 36.3324 22.2211 36.1475 22.7425 36.1475C23.2639 36.1475 23.7644 36.3324 24.136 36.6624C24.3237 36.8275 24.4735 37.0243 24.5769 37.2417C24.6802 37.459 24.7352 37.6926 24.7385 37.929C24.7418 38.1655 24.6934 38.4003 24.5962 38.6199C24.499 38.8395 24.3547 39.0397 24.1717 39.209C23.9887 39.3784 23.7706 39.5135 23.5297 39.6068C23.2888 39.7001 23.0299 39.7496 22.7678 39.7526C22.5057 39.7556 22.2455 39.712 22.002 39.6242C21.7586 39.5365 21.5367 39.4064 21.349 39.2413ZM26.1083 43.5351C25.8282 43.2847 25.6377 42.9643 25.5614 42.6152C25.4852 42.2661 25.5266 41.9045 25.6805 41.5769C25.8344 41.2493 26.0935 40.9708 26.4246 40.7774C26.7556 40.5841 27.1433 40.4846 27.5375 40.492C27.8022 40.4849 28.0657 40.527 28.3116 40.6158C28.5575 40.7045 28.7805 40.838 28.9668 41.0078C29.1569 41.1759 29.308 41.3765 29.4111 41.5979C29.5142 41.8194 29.5673 42.0571 29.5673 42.2973C29.5673 42.5374 29.5142 42.7752 29.4111 42.9966C29.308 43.218 29.1569 43.4186 28.9668 43.5867C28.7745 43.7634 28.5444 43.9027 28.2903 43.9963C28.0363 44.0898 27.7638 44.1356 27.4895 44.1307C27.2152 44.1259 26.9448 44.0706 26.6951 43.9682C26.4453 43.8658 26.2213 43.7184 26.0369 43.5351H26.1083ZM30.8676 47.829C30.6739 47.6628 30.5196 47.4628 30.4142 47.2411C30.3088 47.0194 30.2545 46.7808 30.2545 46.5396C30.2545 46.2984 30.3088 46.0597 30.4142 45.838C30.5196 45.6163 30.6739 45.4163 30.8676 45.2501C31.2496 44.9143 31.7636 44.7289 32.2968 44.7343C32.619 44.7404 32.9346 44.8175 33.2161 44.9591C33.4975 45.1006 33.7363 45.3022 33.9114 45.5463C34.0865 45.7903 34.1927 46.0693 34.2207 46.3589C34.2487 46.6486 34.1975 46.9399 34.0718 47.2076C33.9461 47.4753 33.7496 47.7111 33.4995 47.8944C33.2494 48.0778 32.9534 48.203 32.6372 48.2592C32.3211 48.3155 31.9945 48.3009 31.686 48.2169C31.3775 48.1329 31.0965 47.982 30.8676 47.7774V47.829ZM57.4225 39.2026C57.0406 39.5397 56.5275 39.7284 55.9933 39.7284C55.459 39.7284 54.946 39.5397 54.564 39.2026L40.0575 26.0631C39.9428 25.8999 39.7889 25.762 39.6071 25.6597C39.4254 25.5573 39.2205 25.4931 39.0076 25.4719C38.7946 25.4506 38.5791 25.4728 38.377 25.5368C38.1749 25.6009 37.9912 25.7051 37.8398 25.8417C37.6883 25.9784 37.5728 26.1441 37.5018 26.3264C37.4309 26.5088 37.4063 26.7032 37.4298 26.8953C37.4534 27.0874 37.5245 27.2723 37.638 27.4363C37.7514 27.6002 37.9042 27.7391 38.0852 27.8426L56.3363 44.3604C56.5244 44.5291 56.6732 44.7302 56.7739 44.9516C56.8745 45.1731 56.925 45.4105 56.9222 45.6498C56.9274 45.8895 56.8781 46.1276 56.7773 46.3493C56.6765 46.5711 56.5264 46.7719 56.3363 46.9393C55.9647 47.2692 55.4642 47.4542 54.9428 47.4542C54.4214 47.4542 53.9209 47.2692 53.5493 46.9393L35.2982 30.4086C35.0239 30.2517 34.6986 30.1838 34.3758 30.216C34.053 30.2482 33.752 30.3787 33.5224 30.5859C33.2927 30.793 33.1482 31.0646 33.1124 31.3558C33.0767 31.647 33.152 31.9405 33.3259 32.188L47.8324 45.263C48.2115 45.605 48.4244 46.0688 48.4244 46.5525C48.4244 47.0361 48.2115 47.4999 47.8324 47.8419C47.4534 48.1839 46.9393 48.376 46.4032 48.376C45.8671 48.376 45.353 48.1839 44.974 47.8419L30.5389 34.7024C30.2646 34.5456 29.9393 34.4776 29.6165 34.5099C29.2937 34.5421 28.9927 34.6725 28.7631 34.8797C28.5334 35.0869 28.3889 35.3585 28.3531 35.6497C28.3174 35.9409 28.3927 36.2344 28.5666 36.4819L39.4286 46.2817C39.6163 46.451 39.7652 46.652 39.8668 46.8733C39.9683 47.0945 40.0206 47.3316 40.0206 47.5711C40.0206 47.8106 39.9683 48.0477 39.8668 48.269C39.7652 48.4902 39.6163 48.6912 39.4286 48.8606C39.2409 49.0299 39.0181 49.1642 38.7729 49.2559C38.5277 49.3475 38.2648 49.3947 37.9994 49.3947C37.734 49.3947 37.4711 49.3475 37.2259 49.2559C36.9807 49.1642 36.7579 49.0299 36.5702 48.8606L36.3129 48.6285C36.7032 47.9776 36.8985 47.2463 36.8798 46.5065C36.861 45.7668 36.6287 45.0442 36.2059 44.4102C35.7831 43.7762 35.1844 43.2526 34.4688 42.8911C33.7532 42.5296 32.9454 42.3427 32.1253 42.3489C32.1331 41.7848 32.0151 41.2251 31.7781 40.7032C31.5412 40.1812 31.1902 39.7075 30.7461 39.3105C30.302 38.9134 29.7739 38.6011 29.1932 38.392C28.6125 38.183 27.9911 38.0815 27.366 38.0937C27.3863 37.3476 27.1894 36.6097 26.795 35.9537C26.4005 35.2977 25.8223 34.7465 25.118 34.3551C24.4136 33.9636 23.6079 33.7457 22.781 33.7229C21.9542 33.7001 21.1352 33.8734 20.4058 34.2253C18.7076 32.6772 17.4945 30.7507 16.8899 28.642C16.5643 27.5169 15.9075 26.4921 14.989 25.6763L11.3445 22.4011L24.4361 10.5898L26.3227 12.2918C27.2154 13.0921 28.3759 13.6043 29.6242 13.7489L32.5684 14.0842L25.5366 20.4283C25.0101 20.8709 24.5877 21.4048 24.2948 21.9979C24.0019 22.591 23.8443 23.2313 23.8316 23.8806C23.8189 24.5299 23.9513 25.1748 24.2209 25.7769C24.4904 26.379 24.8917 26.9259 25.4006 27.3851C25.9095 27.8442 26.5158 28.2062 27.1831 28.4494C27.8505 28.6926 28.5653 28.812 29.2849 28.8006C30.0046 28.7891 30.7143 28.647 31.3717 28.3827C32.0291 28.1184 32.6208 27.7374 33.1115 27.2623L37.8422 22.9943C38.266 22.6201 38.7776 22.3367 39.3392 22.1648C39.9007 21.993 40.4978 21.9371 41.0865 22.0014L57.351 36.6753C57.5372 36.8447 57.6838 37.0461 57.782 37.2676C57.8803 37.4891 57.9281 37.7262 57.9227 37.9647C57.9169 38.4286 57.7119 38.8723 57.351 39.2026H57.4225ZM61.3671 29.1449C60.9668 30.973 59.9716 32.652 58.5087 33.9674L58.4086 34.0577L47.3608 24.1161C48.7623 24.444 50.201 24.6257 51.6484 24.6576C51.8336 24.6703 52.0197 24.6478 52.1947 24.5916C52.3697 24.5354 52.5297 24.4467 52.6643 24.3313C52.799 24.2159 52.9054 24.0763 52.9765 23.9215C53.0477 23.7667 53.0822 23.6002 53.0777 23.4327C53.0777 23.0907 52.9271 22.7627 52.659 22.5209C52.391 22.2791 52.0275 22.1432 51.6484 22.1432C48.9385 22.0775 46.286 21.4229 43.9164 20.2348C42.6319 19.5821 41.1471 19.3235 39.6856 19.4979C38.2241 19.6723 36.8649 20.2703 35.8127 21.2019L31.082 25.47C30.8585 25.7343 30.5746 25.9523 30.2496 26.1091C29.9246 26.2659 29.5661 26.3578 29.1983 26.3787C28.8305 26.3996 28.462 26.349 28.1178 26.2302C27.7736 26.1115 27.4616 25.9274 27.2031 25.6904C26.9446 25.4534 26.7455 25.1691 26.6194 24.8567C26.4932 24.5443 26.443 24.2111 26.472 23.8796C26.501 23.5482 26.6086 23.2262 26.7875 22.9355C26.9664 22.6448 27.2124 22.3922 27.509 22.1948L34.655 15.7476C35.7124 14.8032 36.9941 14.0884 38.4031 13.6573C39.8121 13.2261 41.3113 13.0899 42.7873 13.2589C44.5263 13.4517 46.2907 13.3138 47.967 12.8541C49.6433 12.3944 51.1944 11.623 52.5203 10.5898L65.6548 22.4011L64.9402 23.0329C63.0997 24.7029 61.8554 26.8315 61.3671 29.1449ZM73.8442 20.1188L71.4717 22.1948C71.3382 22.3216 71.1774 22.4226 70.9993 22.4916C70.8212 22.5606 70.6293 22.5961 70.4355 22.5961C70.2416 22.5961 70.0498 22.5606 69.8717 22.4916C69.6935 22.4226 69.5328 22.3216 69.3993 22.1948L52.7918 7.19852C52.6513 7.07806 52.5394 6.93307 52.4629 6.77236C52.3864 6.61164 52.347 6.43857 52.347 6.26368C52.347 6.08878 52.3864 5.91571 52.4629 5.755C52.5394 5.59428 52.6513 5.44929 52.7918 5.32883L55.1214 3.22703C55.255 3.10023 55.4157 2.99926 55.5938 2.93026C55.7719 2.86127 55.9638 2.82569 56.1576 2.82569C56.3515 2.82569 56.5433 2.86127 56.7214 2.93026C56.8996 2.99926 57.0603 3.10023 57.1938 3.22703L73.8013 18.3265C74.0675 18.568 74.2169 18.8949 74.2169 19.2355C74.2169 19.5762 74.0675 19.903 73.8013 20.1446L73.8442 20.1188Z" fill="black"/>
</svg>
