<svg width="108" height="297" viewBox="0 0 108 297" fill="none" xmlns="http://www.w3.org/2000/svg">
<mask id="path-1-inside-1_3080_4" fill="white">
<path d="M42.7969 150.406L149.141 44.5133L256.557 152.387L150.213 258.28L42.7969 150.406Z"/>
</mask>
<path d="M42.7969 150.406L39.9745 147.572L37.14 150.394L39.9624 153.229L42.7969 150.406ZM45.6193 153.241L151.964 47.3477L146.319 41.6788L39.9745 147.572L45.6193 153.241ZM153.047 255.457L45.6313 147.584L39.9624 153.229L147.378 261.102L153.047 255.457Z" fill="#EA252C" fill-opacity="0.5" mask="url(#path-1-inside-1_3080_4)"/>
<mask id="path-3-inside-2_3080_4" fill="white">
<path d="M22.123 151.346L152.915 21.1092L276.1 144.819L145.308 275.056L22.123 151.346Z"/>
</mask>
<path d="M22.123 151.346L19.3006 148.511L16.4662 151.334L19.2886 154.168L22.123 151.346ZM24.9455 154.18L155.737 23.9436L150.092 18.2748L19.3006 148.511L24.9455 154.18ZM148.143 272.233L24.9575 148.523L19.2886 154.168L142.474 277.878L148.143 272.233Z" fill="#DE8026" fill-opacity="0.5" mask="url(#path-3-inside-2_3080_4)"/>
<mask id="path-5-inside-3_3080_4" fill="white">
<path d="M0 151.014L150.656 0.997395L295.23 146.188L144.575 296.204L0 151.014Z"/>
</mask>
<path d="M0 151.014L-2.82241 148.179L-5.65684 151.002L-2.83443 153.836L0 151.014ZM2.82241 153.848L153.478 3.83183L147.833 -1.83704L-2.82241 148.179L2.82241 153.848ZM147.409 293.382L2.83443 148.191L-2.83443 153.836L141.74 299.027L147.409 293.382Z" fill="#009E4D" fill-opacity="0.5" mask="url(#path-5-inside-3_3080_4)"/>
</svg>
