<svg width="156" height="98" viewBox="0 0 156 98" fill="none" xmlns="http://www.w3.org/2000/svg">
<circle cx="4" cy="4" r="4" fill="#FF974B"/>
<circle cx="41" cy="4" r="4" fill="#FF974B"/>
<circle cx="78" cy="4" r="4" fill="#FF974B"/>
<circle cx="115" cy="4" r="4" fill="#FF974B"/>
<circle cx="152" cy="4" r="4" fill="#FF974B"/>
<circle cx="4" cy="34" r="4" fill="#FF974B"/>
<circle cx="41" cy="34" r="4" fill="#FF974B"/>
<circle cx="78" cy="34" r="4" fill="#FF974B"/>
<circle cx="115" cy="34" r="4" fill="#FF974B"/>
<circle cx="152" cy="34" r="4" fill="#FF974B"/>
<circle cx="4" cy="94" r="4" fill="#FF974B"/>
<circle cx="41" cy="94" r="4" fill="#FF974B"/>
<circle cx="78" cy="94" r="4" fill="#FF974B"/>
<circle cx="115" cy="94" r="4" fill="#FF974B"/>
<circle cx="152" cy="94" r="4" fill="#FF974B"/>
<circle cx="4" cy="64" r="4" fill="#FF974B"/>
<circle cx="41" cy="64" r="4" fill="#FF974B"/>
<circle cx="78" cy="64" r="4" fill="#FF974B"/>
<circle cx="115" cy="64" r="4" fill="#FF974B"/>
<circle cx="152" cy="64" r="4" fill="#FF974B"/>
</svg>
