<svg width="340" height="74" viewBox="0 0 340 74" fill="none" xmlns="http://www.w3.org/2000/svg">
<g clip-path="url(#clip0_3212_8)">
<path d="M138.072 53.9852C138.072 54.7962 137.878 55.4286 137.498 55.8664C137.176 56.2307 136.794 56.4075 136.334 56.4075C135.873 56.4075 135.492 56.2275 135.17 55.8552C134.788 55.4183 134.595 54.7878 134.595 53.9852C134.595 53.192 134.792 52.5676 135.181 52.1288C135.511 51.7579 135.887 51.5774 136.334 51.5774C136.794 51.5774 137.175 51.757 137.496 52.1279C137.878 52.5676 138.072 53.192 138.072 53.9857L138.072 53.9852ZM136.334 50.5723C135.719 50.5723 135.203 50.7603 134.801 51.1335C134.699 51.2275 134.6 51.3393 134.508 51.4684V50.6696H133.4L133.458 52.061V59.9991H134.596V56.5801C134.735 56.7471 134.893 56.8902 135.066 57.0118C135.443 57.277 135.869 57.4117 136.334 57.4117C137.121 57.4117 137.784 57.1601 138.303 56.6652C138.93 56.0675 139.248 55.1676 139.248 53.9852C139.248 52.9941 139.016 52.1878 138.556 51.5872C138.044 50.9132 137.295 50.5723 136.334 50.5723H136.334Z" fill="#231F20"/>
<path d="M146.338 53.9852C146.338 54.7962 146.144 55.4286 145.763 55.8664C145.442 56.2307 145.06 56.4075 144.599 56.4075C144.137 56.4075 143.758 56.2275 143.435 55.8552C143.054 55.4183 142.86 54.7878 142.86 53.9852C142.86 53.192 143.058 52.5676 143.447 52.1288C143.777 51.7579 144.153 51.5774 144.599 51.5774C145.06 51.5774 145.441 51.757 145.762 52.1279C146.144 52.5676 146.338 53.192 146.338 53.9857V53.9852ZM144.599 50.5723C143.985 50.5723 143.469 50.7603 143.067 51.1335C142.965 51.2275 142.866 51.3393 142.774 51.4684V50.6696H141.665L141.724 52.061V59.9991H142.86V56.6138L142.861 56.5806C143.001 56.7476 143.158 56.8907 143.331 57.0123C143.708 57.2775 144.134 57.4122 144.599 57.4122C145.387 57.4122 146.049 57.1606 146.567 56.6657C147.195 56.068 147.513 55.1681 147.513 53.9857C147.513 52.9946 147.281 52.1882 146.822 51.5877C146.309 50.9137 145.562 50.5727 144.599 50.5727V50.5723Z" fill="#231F20"/>
<path d="M52.7432 40.9986H55.7811L76.864 19.0172L101.076 40.9986H107.889L78.7052 14L52.7432 40.9986Z" fill="#009E4D"/>
<path d="M88.3721 17.7296L114.003 40.9986H120.816L91.6324 14L88.3721 17.7296Z" fill="#DE8026"/>
<path d="M102.186 17.7296L127.818 40.9986H134.63L105.446 14L102.186 17.7296Z" fill="#EA252C"/>
<path d="M24.0228 52.224C23.504 51.9443 23.1513 51.74 22.9719 51.6193C22.5267 51.3246 22.3091 50.9893 22.3091 50.5898C22.3091 50.2409 22.4068 49.9687 22.6065 49.7559C22.8756 49.4757 23.3175 49.3331 23.9237 49.3331C24.5147 49.3331 25.0841 49.4528 25.6213 49.6867L25.8371 49.7807L26.0037 48.6418L25.8621 48.5959C25.2356 48.3855 24.5832 48.2793 23.9237 48.2793C22.9483 48.2793 22.2043 48.5141 21.7081 48.9785C21.2861 49.3784 21.0717 49.9224 21.0717 50.5898C21.0717 51.1104 21.2294 51.5758 21.5429 51.9757C21.8006 52.2998 22.3289 52.6688 23.1608 53.1019C24.2258 53.6548 24.6073 53.9756 24.739 54.1487C24.9269 54.3929 25.0185 54.6856 25.0185 55.0397C25.0185 55.4681 24.8258 55.7974 24.4316 56.042C24.088 56.2525 23.672 56.3591 23.1924 56.3591C22.9535 56.3591 22.633 56.3068 22.2421 56.2048C21.8479 56.1028 21.54 55.999 21.3281 55.898L21.0911 55.7857L20.999 56.9728L21.1227 57.021C21.4692 57.1533 21.8082 57.2544 22.1316 57.318C22.4536 57.3816 22.8157 57.412 23.2056 57.412C24.2107 57.412 24.9963 57.1711 25.5392 56.6936C26.0146 56.2759 26.2554 55.7319 26.2554 55.0776C26.2554 54.3732 26.0443 53.7848 25.6275 53.3265C25.3395 53.0159 24.8136 52.6543 24.0219 52.224H24.0228Z" fill="#231F20"/>
<path d="M30.7301 50.5488C30.2675 50.5488 29.8685 50.7238 29.5451 51.0727C29.4748 51.1489 29.4101 51.2326 29.3506 51.3215V50.6704H28.2412L28.2979 52.0002V57.3153H29.4366V53.5207C29.4366 52.9581 29.5706 52.495 29.835 52.1433C30.0895 51.8047 30.4025 51.6395 30.7924 51.6395C30.8713 51.6395 30.968 51.6503 31.078 51.6723C31.1843 51.6933 31.274 51.7223 31.3424 51.7551L31.6025 51.8837V50.7326L31.4798 50.6929C31.1852 50.5951 30.9411 50.5488 30.7301 50.5488Z" fill="#231F20"/>
<path d="M33.3838 57.3157H34.5225V50.6582H33.3838V57.3157Z" fill="#231F20"/>
<path d="M33.3477 49.2122H34.5605V47.875H33.3477V49.2122Z" fill="#231F20"/>
<path d="M47.749 48.368L46.1963 48.3633L42.4422 52.0807V48.3666H41.2686V57.3159H42.4422V53.236L46.5575 57.3159H48.223L43.3614 52.6144L47.749 48.368Z" fill="#231F20"/>
<path d="M51.3209 50.5488C50.8578 50.5488 50.4603 50.7238 50.135 51.0727C50.0651 51.1489 50 51.2326 49.9405 51.3215V50.6704H48.8311L48.8891 52.0002V57.3153H50.0278V53.5207C50.0278 52.9581 50.161 52.495 50.4249 52.1433C50.6798 51.8047 50.9937 51.6395 51.3827 51.6395C51.4616 51.6395 51.5584 51.6503 51.6688 51.6723C51.7755 51.6933 51.8633 51.7223 51.9323 51.7551L52.1929 51.8837V50.7326L52.0701 50.6929C51.7755 50.5951 51.5315 50.5488 51.3204 50.5488H51.3209Z" fill="#231F20"/>
<path d="M54.1865 49.2122H55.3989V47.875H54.1865V49.2122Z" fill="#231F20"/>
<path d="M54.2227 57.3157H55.3614V50.6582H54.2227V57.3157Z" fill="#231F20"/>
<path d="M61.2202 53.9571C60.9737 53.7649 60.5899 53.5661 60.0451 53.3444C59.4191 53.0891 59.1793 52.9408 59.0863 52.8603C58.9277 52.7224 58.8512 52.5325 58.8512 52.2827C58.8512 52.0624 58.9357 51.9025 59.1189 51.7799C59.3186 51.6461 59.6136 51.5769 59.9956 51.5769C60.4898 51.5769 60.9695 51.6719 61.4246 51.8585L61.6526 51.952L61.7319 50.9712L61.6172 50.9184C61.3519 50.8014 61.0951 50.7126 60.8529 50.6565C60.6098 50.5999 60.3336 50.5723 60.0333 50.5723C59.3365 50.5723 58.7738 50.7294 58.3649 51.0376C57.9401 51.358 57.7257 51.7766 57.7257 52.2822C57.7257 52.8426 57.9509 53.3056 58.3999 53.6592C58.652 53.8589 59.1189 54.0993 59.8242 54.394C60.2236 54.5671 60.3907 54.6742 60.4606 54.7331C60.6683 54.9122 60.7698 55.1452 60.7698 55.444C60.7698 55.7368 60.6702 55.9632 60.4658 56.1372C60.2576 56.3163 59.937 56.4071 59.5135 56.4071C59.2468 56.4071 58.9754 56.3762 58.7063 56.3135C58.4343 56.2518 58.1775 56.1648 57.9438 56.0553L57.7054 55.9468L57.6299 57.074L57.7569 57.1194C58.2951 57.314 58.8767 57.4117 59.4881 57.4117C60.2722 57.4117 60.8911 57.22 61.3269 56.842C61.7362 56.4894 61.9444 56.0198 61.9444 55.444C61.9444 54.843 61.7022 54.3435 61.2207 53.9562L61.2202 53.9571Z" fill="#231F20"/>
<path d="M67.1357 50.5727C66.6551 50.5727 66.2108 50.7083 65.8147 50.9782C65.6174 51.1115 65.4422 51.2719 65.2931 51.4562L65.3228 50.7743V47.6055H64.1846V57.3153H65.3228V53.4716C65.3228 52.9627 65.4819 52.5273 65.8128 52.14C66.1343 51.7616 66.5262 51.5783 67.0115 51.5783C67.6517 51.5783 68.0562 51.7728 68.2484 52.1756C68.314 52.3112 68.3924 52.6087 68.3924 53.263V57.3153H69.5297V53.2265C69.5297 52.5624 69.414 52.0175 69.1864 51.6091C68.8069 50.9221 68.1176 50.5731 67.1361 50.5731L67.1357 50.5727Z" fill="#231F20"/>
<path d="M75.1171 50.5723C74.5321 50.5723 74.0294 50.7378 73.6196 51.0657C73.4638 51.1883 73.3212 51.3351 73.1923 51.5035V50.671H72.1367L72.1783 52.2944V57.3149H73.317V53.4712C73.317 52.9684 73.4718 52.5334 73.7914 52.1415C74.0988 51.7621 74.4977 51.5779 75.0057 51.5779C75.6468 51.5779 76.0504 51.7701 76.2421 52.163C76.3086 52.2986 76.3856 52.598 76.3856 53.2626V57.3149H77.5233V53.2261C77.5233 52.5545 77.4129 52.0105 77.1929 51.6087C76.8143 50.9217 76.1165 50.5727 75.1171 50.5727V50.5723Z" fill="#231F20"/>
<path d="M83.7484 54.1274V54.4038C83.7484 55.0109 83.5917 55.5053 83.2825 55.8711C82.978 56.2326 82.5399 56.4075 81.9483 56.4075C81.6509 56.4075 81.4026 56.3163 81.1873 56.1274C80.9782 55.945 80.8762 55.7097 80.8762 55.408C80.8762 54.9319 81.0934 54.5993 81.5395 54.3931C81.9261 54.2163 82.4917 54.1269 83.222 54.1269H83.748L83.7484 54.1274ZM84.8867 53.0909C84.8867 52.4492 84.7738 51.9329 84.5519 51.5563C84.1738 50.9029 83.4718 50.5723 82.4686 50.5723C82.0999 50.5723 81.743 50.6102 81.4059 50.6859C81.0716 50.7617 80.7667 50.8604 80.5009 50.9787L80.3946 51.0274V52.1789L80.6604 52.033C81.2085 51.7303 81.8171 51.5765 82.4681 51.5765C83.0035 51.5765 83.3618 51.7476 83.5591 52.1003C83.6842 52.3159 83.7475 52.6466 83.7475 53.0783V53.1213H83.5176C82.0862 53.1213 81.0976 53.336 80.4905 53.7813C79.9665 54.1672 79.7002 54.7308 79.7002 55.4567C79.7002 55.9861 79.8843 56.4365 80.2474 56.7948C80.6505 57.2041 81.2265 57.4108 81.9587 57.4108C82.3609 57.4108 82.7391 57.3364 83.0818 57.1882C83.3835 57.0581 83.6479 56.8687 83.8712 56.6236V57.3135H84.9282L84.8862 55.7625V53.0895L84.8867 53.0909Z" fill="#231F20"/>
<path d="M97.1004 52.8394C97.1004 53.9302 96.7874 54.7819 96.1708 55.3703C95.5529 55.961 94.6856 56.2594 93.5913 56.2594H92.5579V49.4181H93.5913C94.5237 49.4181 95.2705 49.5921 95.8097 49.9316C96.6651 50.4676 97.0999 51.4452 97.0999 52.8394H97.1004ZM95.5373 48.6061C95.0114 48.4457 94.3858 48.3652 93.6791 48.3652H91.3828V57.3146H93.6791C95.0453 57.3146 96.1439 56.9563 96.9408 56.2505C97.5342 55.7299 97.9478 55.0443 98.1706 54.2108C98.2816 53.7964 98.3368 53.3469 98.3368 52.8768C98.3368 51.6308 98.0413 50.6201 97.4592 49.8699C96.9998 49.2787 96.3535 48.8531 95.5377 48.6056L95.5373 48.6061Z" fill="#231F20"/>
<path d="M101.078 53.3917C101.109 52.9642 101.249 52.5769 101.495 52.2402C101.825 51.7925 102.265 51.5765 102.835 51.5765C103.438 51.5765 103.855 51.8145 104.113 52.3028C104.266 52.5966 104.354 52.9614 104.373 53.3917H101.078ZM102.835 50.5723C101.925 50.5723 101.199 50.888 100.674 51.5124C100.158 52.1251 99.8965 52.9263 99.8965 53.887C99.8965 55.0773 100.228 55.9945 100.879 56.6147C101.448 57.1606 102.205 57.4379 103.133 57.4379C103.739 57.4379 104.354 57.3093 104.959 57.0553L105.069 57.0099V55.8935L104.81 56.0221C104.211 56.3187 103.663 56.4679 103.182 56.4679C102.53 56.4679 102.02 56.2452 101.622 55.7822C101.293 55.4019 101.11 54.9347 101.078 54.3963H105.553V53.9735C105.553 53.1428 105.431 52.4618 105.189 51.9511C104.763 51.0353 103.973 50.5723 102.836 50.5723H102.835Z" fill="#231F20"/>
<path d="M109.52 55.8476L107.8 50.6727L106.604 50.6704L108.933 57.3153H110.105L112.363 50.6718L111.23 50.6699L109.52 55.8476Z" fill="#231F20"/>
<path d="M115.098 53.3917C115.128 52.9642 115.268 52.5769 115.515 52.2402C115.846 51.7925 116.285 51.5765 116.855 51.5765C117.457 51.5765 117.875 51.8145 118.133 52.3028C118.287 52.5966 118.373 52.9614 118.392 53.3917H115.098ZM116.855 50.5723C115.946 50.5723 115.218 50.888 114.695 51.5124C114.178 52.1251 113.917 52.9263 113.917 53.887C113.917 55.0773 114.248 55.9945 114.9 56.6147C115.467 57.1606 116.226 57.4379 117.153 57.4379C117.76 57.4379 118.373 57.3093 118.98 57.0553L119.089 57.0099V55.8935L118.83 56.0221C118.231 56.3187 117.683 56.4679 117.201 56.4679C116.549 56.4679 116.04 56.2452 115.643 55.7822C115.313 55.4019 115.13 54.9347 115.097 54.3963H119.572V53.9735C119.572 53.1428 119.45 52.4618 119.209 51.9511C118.784 51.0353 117.992 50.5723 116.856 50.5723H116.855Z" fill="#231F20"/>
<path d="M122.184 57.3153H123.322V47.6055H122.184V57.3153Z" fill="#231F20"/>
<path d="M130.3 53.9988C130.3 54.6068 130.151 55.1419 129.858 55.5951C129.502 56.1419 129.013 56.4075 128.364 56.4075C127.706 56.4075 127.212 56.1377 126.856 55.5825C126.571 55.14 126.426 54.6073 126.426 53.9988C126.426 53.3903 126.576 52.8491 126.869 52.3903C127.217 51.8431 127.705 51.5769 128.364 51.5769C129.022 51.5769 129.514 51.8468 129.87 52.4015C130.156 52.8533 130.3 53.3903 130.3 53.9988ZM128.364 50.5727C127.379 50.5727 126.596 50.9165 126.034 51.5942C125.514 52.22 125.253 53.0301 125.253 53.9988C125.253 54.9684 125.514 55.7742 126.035 56.3926C126.604 57.0694 127.388 57.4122 128.364 57.4122C129.338 57.4122 130.122 57.0694 130.691 56.3926C131.212 55.7742 131.477 54.9688 131.477 53.9988C131.477 53.0297 131.212 52.2196 130.692 51.5919C130.122 50.9151 129.339 50.5723 128.364 50.5723V50.5727Z" fill="#231F20"/>
<path d="M150.626 53.3917C150.656 52.9642 150.795 52.5769 151.042 52.2402C151.372 51.7925 151.811 51.5765 152.382 51.5765C152.984 51.5765 153.401 51.8145 153.66 52.3028C153.814 52.5966 153.9 52.9614 153.92 53.3917H150.626H150.626ZM152.382 50.5723C151.473 50.5723 150.745 50.888 150.222 51.5124C149.706 52.1251 149.443 52.9263 149.443 53.887C149.443 55.0773 149.775 55.9945 150.427 56.6147C150.994 57.1606 151.753 57.4379 152.681 57.4379C153.287 57.4379 153.902 57.3093 154.507 57.0553L154.617 57.0099V55.8935L154.358 56.0221C153.759 56.3187 153.21 56.4679 152.729 56.4679C152.078 56.4679 151.567 56.2452 151.17 55.7822C150.84 55.4019 150.658 54.9347 150.625 54.3963H155.1V53.9735C155.1 53.1428 154.977 52.4618 154.736 51.9511C154.311 51.0353 153.519 50.5723 152.382 50.5723Z" fill="#231F20"/>
<path d="M159.448 50.5488C158.988 50.5488 158.587 50.7238 158.262 51.0727C158.193 51.1489 158.127 51.2326 158.068 51.3215V50.6704H156.958L157.017 52.0002V57.3153H158.155V53.5207C158.155 52.9581 158.288 52.495 158.553 52.1433C158.807 51.8047 159.121 51.6395 159.511 51.6395C159.59 51.6395 159.685 51.6503 159.796 51.6723C159.903 51.6933 159.992 51.7223 160.06 51.7551L160.32 51.8837V50.7326L160.197 50.6929C159.902 50.5951 159.659 50.5488 159.447 50.5488H159.448Z" fill="#231F20"/>
<path d="M165.277 53.9571C165.03 53.7649 164.648 53.5661 164.102 53.3444C163.475 53.0891 163.235 52.9408 163.143 52.8603C162.984 52.7224 162.907 52.5325 162.907 52.2827C162.907 52.0624 162.992 51.9025 163.175 51.7799C163.374 51.6461 163.67 51.5769 164.052 51.5769C164.546 51.5769 165.026 51.6719 165.48 51.8585L165.708 51.952L165.788 50.9712L165.673 50.9184C165.409 50.8014 165.15 50.7126 164.908 50.6565C164.665 50.5999 164.389 50.5723 164.089 50.5723C163.392 50.5723 162.829 50.7294 162.421 51.0376C161.996 51.358 161.781 51.7766 161.781 52.2822C161.781 52.8426 162.007 53.3056 162.455 53.6592C162.708 53.8589 163.174 54.0993 163.879 54.394C164.279 54.5671 164.446 54.6742 164.517 54.7331C164.724 54.9122 164.825 55.1452 164.825 55.444C164.825 55.7368 164.726 55.9632 164.522 56.1372C164.314 56.3163 163.993 56.4071 163.569 56.4071C163.304 56.4071 163.031 56.3762 162.763 56.3135C162.491 56.2518 162.234 56.1648 162 56.0553L161.762 55.9468L161.687 57.074L161.813 57.1194C162.35 57.314 162.932 57.4117 163.545 57.4117C164.328 57.4117 164.947 57.22 165.382 56.842C165.793 56.4894 166 56.0198 166 55.444C166 54.843 165.757 54.3435 165.277 53.9562V53.9571Z" fill="#231F20"/>
</g>
<path d="M226.057 29.6333H228.68V46.6929H238.489V49H226.057V29.6333ZM241.336 29.6333H255.456V32.0063H243.894V37.8862H254.586V40.1274H243.894V46.6929H255.654V49H241.336V29.6333ZM269.035 41.0635L266.095 32.5073L262.971 41.0635H269.035ZM264.724 29.6333H267.69L274.717 49H271.843L269.879 43.1992H262.219L260.123 49H257.434L264.724 29.6333ZM284.539 46.7588C285.427 46.7588 286.156 46.6665 286.728 46.4819C287.747 46.1392 288.582 45.48 289.232 44.5044C289.751 43.7222 290.125 42.7202 290.353 41.4985C290.485 40.769 290.551 40.0923 290.551 39.4683C290.551 37.0688 290.072 35.2056 289.114 33.8784C288.165 32.5513 286.631 31.8877 284.513 31.8877H279.859V46.7588H284.539ZM277.222 29.6333H285.066C287.729 29.6333 289.795 30.5781 291.263 32.4678C292.572 34.1729 293.227 36.3569 293.227 39.02C293.227 41.0767 292.84 42.9355 292.067 44.5967C290.705 47.5322 288.362 49 285.04 49H277.222V29.6333ZM298.329 42.751C298.391 43.8496 298.65 44.7417 299.107 45.4272C299.977 46.7104 301.511 47.3521 303.708 47.3521C304.692 47.3521 305.589 47.2114 306.397 46.9302C307.962 46.3853 308.744 45.4097 308.744 44.0034C308.744 42.9487 308.415 42.1973 307.755 41.749C307.087 41.3096 306.042 40.9272 304.618 40.6021L301.994 40.0088C300.28 39.6221 299.067 39.1958 298.355 38.73C297.125 37.9214 296.51 36.7129 296.51 35.1045C296.51 33.3643 297.112 31.936 298.316 30.8198C299.52 29.7036 301.225 29.1455 303.431 29.1455C305.461 29.1455 307.184 29.6377 308.599 30.6221C310.023 31.5977 310.735 33.1621 310.735 35.3154H308.27C308.138 34.2783 307.856 33.4829 307.426 32.9292C306.626 31.9185 305.268 31.4131 303.352 31.4131C301.805 31.4131 300.693 31.7383 300.017 32.3887C299.34 33.0391 299.001 33.7949 299.001 34.6562C299.001 35.6055 299.397 36.2998 300.188 36.7393C300.707 37.0205 301.88 37.3721 303.708 37.7939L306.424 38.4136C307.733 38.7124 308.744 39.1211 309.456 39.6396C310.687 40.5449 311.302 41.8589 311.302 43.5815C311.302 45.7261 310.52 47.2598 308.955 48.1826C307.399 49.1055 305.589 49.5669 303.523 49.5669C301.115 49.5669 299.23 48.9517 297.868 47.7212C296.505 46.4995 295.837 44.8428 295.864 42.751H298.329Z" fill="#453F40"/>
<line x1="196.5" y1="55" x2="196.5" y2="18.9393" stroke="#231F20" stroke-width="2"/>
<defs>
<clipPath id="clip0_3212_8">
<rect width="145" height="46" fill="white" transform="translate(21 14)"/>
</clipPath>
</defs>
</svg>
