<?xml version="1.0" encoding="UTF-8"?>
<!DOCTYPE svg PUBLIC "-//W3C//DTD SVG 1.1//EN" "http://www.w3.org/Graphics/SVG/1.1/DTD/svg11.dtd">
<!-- Creator: CorelDRAW 2020 (64-Bit) -->
<svg xmlns="http://www.w3.org/2000/svg" xml:space="preserve" width="167.922mm" height="53.7705mm" version="1.1" style="shape-rendering:geometricPrecision; text-rendering:geometricPrecision; image-rendering:optimizeQuality; fill-rule:evenodd; clip-rule:evenodd"
viewBox="0 0 3071.4 983.49"
 xmlns:xlink="http://www.w3.org/1999/xlink"
 xmlns:xodm="http://www.corel.com/coreldraw/odm/2003">
 <defs>
  <style type="text/css">
   <![CDATA[
    .fil1 {fill:#009E4D;fill-rule:nonzero}
    .fil0 {fill:#231F20;fill-rule:nonzero}
    .fil2 {fill:#DE8026;fill-rule:nonzero}
    .fil3 {fill:#EA252C;fill-rule:nonzero}
   ]]>
  </style>
 </defs>
 <g id="Layer_x0020_1">
  <metadata id="CorelCorpID_0Corel-Layer"/>
  <g id="_2796875638416">
   <path class="fil0" d="M2479.82 854.91c0,17.34 -4.11,30.86 -12.15,40.22 -6.82,7.79 -14.91,11.57 -24.67,11.57 -9.76,0 -17.82,-3.85 -24.65,-11.81 -8.08,-9.34 -12.17,-22.82 -12.17,-39.98 0,-16.96 4.17,-30.31 12.41,-39.69 6.99,-7.93 14.96,-11.79 24.41,-11.79 9.76,0 17.82,3.84 24.62,11.77 8.1,9.4 12.21,22.75 12.21,39.72zm-36.82 -72.97c-13.02,0 -23.94,4.02 -32.46,12 -2.16,2.01 -4.26,4.4 -6.21,7.16l0 -17.08 -23.46 0 1.21 29.75 0 169.72 24.11 0 0 -73.1c2.96,3.57 6.29,6.63 9.97,9.23 7.97,5.67 17,8.55 26.85,8.55 16.67,0 30.71,-5.38 41.7,-15.96 13.29,-12.78 20.02,-32.02 20.02,-57.3 0,-21.19 -4.92,-38.43 -14.66,-51.27 -10.84,-14.41 -26.7,-21.7 -47.06,-21.7z"/>
   <path class="fil0" d="M2654.91 854.91c0,17.34 -4.1,30.86 -12.17,40.22 -6.81,7.79 -14.9,11.57 -24.67,11.57 -9.77,0 -17.8,-3.85 -24.65,-11.81 -8.07,-9.34 -12.17,-22.82 -12.17,-39.98 0,-16.96 4.19,-30.31 12.42,-39.69 7,-7.93 14.97,-11.79 24.4,-11.79 9.77,0 17.84,3.84 24.65,11.77 8.09,9.4 12.19,22.75 12.19,39.72zm-36.84 -72.97c-13,0 -23.93,4.02 -32.45,12 -2.16,2.01 -4.25,4.4 -6.21,7.16l0 -17.08 -23.48 0 1.24 29.75 0 169.72 24.08 0 0 -72.38 0.01 -0.71c2.96,3.57 6.29,6.63 9.96,9.23 7.99,5.67 17.01,8.55 26.85,8.55 16.69,0 30.72,-5.38 41.7,-15.96 13.3,-12.78 20.04,-32.02 20.04,-57.3 0,-21.19 -4.93,-38.43 -14.65,-51.27 -10.86,-14.41 -26.69,-21.7 -47.09,-21.7z"/>
   <polygon class="fil1" points="672.38,577.24 736.73,577.24 1183.31,107.27 1696.18,577.24 1840.49,577.24 1222.31,0 "/>
   <polygon class="fil2" points="1427.07,79.74 1969.99,577.24 2114.29,577.24 1496.13,0 "/>
   <polygon class="fil3" points="1719.67,79.74 2262.61,577.24 2406.91,577.24 1788.74,0 "/>
   <path class="fil0" d="M64.03 817.25c-10.99,-5.98 -18.46,-10.35 -22.26,-12.93 -9.43,-6.3 -14.04,-13.47 -14.04,-22.01 0,-7.46 2.07,-13.28 6.3,-17.83 5.7,-5.99 15.06,-9.04 27.9,-9.04 12.52,0 24.58,2.56 35.96,7.56l4.57 2.01 3.53 -24.35 -3 -0.98c-13.27,-4.5 -27.09,-6.77 -41.06,-6.77 -20.66,0 -36.42,5.02 -46.93,14.95 -8.94,8.55 -13.48,20.18 -13.48,34.45 0,11.13 3.34,21.08 9.98,29.63 5.46,6.93 16.65,14.82 34.27,24.08 22.56,11.82 30.64,18.68 33.43,22.38 3.98,5.22 5.92,11.48 5.92,19.05 0,9.16 -4.08,16.2 -12.43,21.43 -7.28,4.5 -16.09,6.78 -26.25,6.78 -5.06,0 -11.85,-1.12 -20.13,-3.3 -8.35,-2.18 -14.87,-4.4 -19.36,-6.56l-5.02 -2.4 -1.95 25.38 2.62 1.03c7.34,2.83 14.52,4.99 21.37,6.35 6.82,1.36 14.49,2.01 22.75,2.01 21.29,0 37.93,-5.15 49.43,-15.36 10.07,-8.93 15.17,-20.56 15.17,-34.55 0,-15.06 -4.47,-27.64 -13.3,-37.44 -6.1,-6.64 -17.24,-14.37 -34.01,-23.57z"/>
   <path class="fil0" d="M206.11 781.42c-9.8,0 -18.25,3.74 -25.1,11.2 -1.49,1.63 -2.86,3.42 -4.12,5.32l0 -13.92 -23.5 0 1.2 28.43 0 113.64 24.12 0 0 -81.13c0,-12.03 2.84,-21.93 8.44,-29.45 5.39,-7.24 12.02,-10.77 20.28,-10.77 1.67,0 3.72,0.23 6.05,0.7 2.25,0.45 4.15,1.07 5.6,1.77l5.51 2.75 0 -24.61 -2.6 -0.85c-6.24,-2.09 -11.41,-3.08 -15.88,-3.08z"/>
   <polygon class="fil0" points="262.32,926.09 286.44,926.09 286.44,783.75 262.32,783.75 "/>
   <polygon class="fil0" points="261.54,752.84 287.23,752.84 287.23,724.25 261.54,724.25 "/>
   <polygon class="fil0" points="566.59,734.78 533.7,734.68 454.18,814.16 454.18,734.75 429.32,734.75 429.32,926.09 454.18,926.09 454.18,838.86 541.35,926.09 576.63,926.09 473.65,825.57 "/>
   <path class="fil0" d="M642.26 781.42c-9.81,0 -18.23,3.74 -25.12,11.2 -1.48,1.63 -2.86,3.42 -4.12,5.32l0 -13.92 -23.5 0 1.23 28.43 0 113.64 24.12 0 0 -81.13c0,-12.03 2.82,-21.93 8.41,-29.45 5.4,-7.24 12.05,-10.77 20.29,-10.77 1.67,0 3.72,0.23 6.06,0.7 2.26,0.45 4.12,1.07 5.58,1.77l5.52 2.75 0 -24.61 -2.6 -0.85c-6.24,-2.09 -11.41,-3.08 -15.88,-3.08z"/>
   <polygon class="fil0" points="702.95,752.84 728.63,752.84 728.63,724.25 702.95,724.25 "/>
   <polygon class="fil0" points="703.73,926.09 727.85,926.09 727.85,783.75 703.73,783.75 "/>
   <path class="fil0" d="M851.94 854.3c-5.22,-4.11 -13.35,-8.36 -24.89,-13.1 -13.26,-5.46 -18.34,-8.63 -20.31,-10.35 -3.36,-2.95 -4.98,-7.01 -4.98,-12.35 0,-4.71 1.79,-8.13 5.67,-10.75 4.23,-2.86 10.48,-4.34 18.57,-4.34 10.47,0 20.63,2.03 30.27,6.02l4.83 2 1.68 -20.97 -2.43 -1.13c-5.62,-2.5 -11.06,-4.4 -16.19,-5.6 -5.15,-1.21 -11,-1.8 -17.36,-1.8 -14.76,0 -26.68,3.36 -35.34,9.95 -9,6.85 -13.54,15.8 -13.54,26.61 0,11.98 4.77,21.88 14.28,29.44 5.34,4.27 15.23,9.41 30.17,15.71 8.46,3.7 12,5.99 13.48,7.25 4.4,3.83 6.55,8.81 6.55,15.2 0,6.26 -2.11,11.1 -6.44,14.82 -4.41,3.83 -11.2,5.77 -20.17,5.77 -5.65,0 -11.4,-0.66 -17.1,-2 -5.76,-1.32 -11.2,-3.18 -16.15,-5.52l-5.05 -2.32 -1.6 24.1 2.69 0.97c11.4,4.16 23.72,6.25 36.67,6.25 16.61,0 29.72,-4.1 38.95,-12.18 8.67,-7.54 13.08,-17.58 13.08,-29.89 0,-12.85 -5.13,-23.53 -15.33,-31.81z"/>
   <path class="fil0" d="M977.25 781.93c-10.18,0 -19.59,2.9 -27.98,8.67 -4.18,2.85 -7.89,6.28 -11.05,10.22l0.63 -14.58 0 -67.75 -24.11 0 0 207.6 24.11 0 0 -82.18c0,-10.88 3.37,-20.19 10.38,-28.47 6.81,-8.09 15.11,-12.01 25.39,-12.01 13.56,0 22.13,4.16 26.2,12.77 1.39,2.9 3.05,9.26 3.05,23.25l0 86.64 24.09 0 0 -87.42c0,-14.2 -2.45,-25.85 -7.27,-34.58 -8.04,-14.69 -22.64,-22.15 -43.43,-22.15z"/>
   <path class="fil0" d="M1146.3 781.93c-12.39,0 -23.04,3.54 -31.72,10.55 -3.3,2.62 -6.32,5.76 -9.05,9.36l0 -17.8 -22.36 0 0.88 34.71 0 107.34 24.12 0 0 -82.18c0,-10.75 3.28,-20.05 10.05,-28.43 6.51,-8.11 14.96,-12.05 25.72,-12.05 13.58,0 22.13,4.11 26.19,12.51 1.41,2.9 3.04,9.3 3.04,23.51l0 86.64 24.1 0 0 -87.42c0,-14.36 -2.34,-25.99 -7,-34.58 -8.02,-14.69 -22.8,-22.15 -43.97,-22.15z"/>
   <path class="fil0" d="M1329.14 857.94l0 5.91c0,12.98 -3.32,23.55 -9.87,31.37 -6.45,7.73 -15.73,11.47 -28.26,11.47 -6.3,0 -11.56,-1.95 -16.12,-5.99 -4.43,-3.9 -6.59,-8.93 -6.59,-15.38 0,-10.18 4.6,-17.29 14.05,-21.7 8.19,-3.78 20.17,-5.69 35.64,-5.69l11.14 0zm24.11 -22.16c0,-13.72 -2.39,-24.76 -7.09,-32.81 -8.01,-13.97 -22.88,-21.04 -44.13,-21.04 -7.81,0 -15.37,0.81 -22.51,2.43 -7.08,1.62 -13.54,3.73 -19.17,6.26l-2.25 1.04 0 24.62 5.63 -3.12c11.61,-6.47 24.5,-9.76 38.29,-9.76 11.34,0 18.93,3.66 23.11,11.2 2.65,4.61 3.99,11.68 3.99,20.91l0 0.92 -4.87 0c-30.32,0 -51.26,4.59 -64.12,14.11 -11.1,8.25 -16.74,20.3 -16.74,35.82 0,11.32 3.9,20.95 11.59,28.61 8.54,8.75 20.74,13.17 36.25,13.17 8.52,0 16.53,-1.59 23.79,-4.76 6.39,-2.78 11.99,-6.83 16.72,-12.07l0 14.75 22.39 0 -0.89 -33.16 0 -57.15z"/>
   <path class="fil0" d="M1611.96 830.42c0,23.32 -6.63,41.53 -19.69,54.11 -13.09,12.63 -31.46,19.01 -54.64,19.01l-21.89 0 0 -146.27 21.89 0c19.75,0 35.57,3.72 46.99,10.98 18.12,11.46 27.33,32.36 27.33,62.17zm-33.11 -90.51c-11.14,-3.43 -24.39,-5.15 -39.36,-5.15l-48.64 0 0 191.34 48.64 0c28.94,0 52.21,-7.66 69.09,-22.75 12.57,-11.13 21.33,-25.79 26.05,-43.61 2.35,-8.86 3.52,-18.47 3.52,-28.52 0,-26.64 -6.26,-48.25 -18.59,-64.29 -9.73,-12.64 -23.42,-21.74 -40.7,-27.03z"/>
   <path class="fil0" d="M1696.21 842.22c0.65,-9.14 3.61,-17.42 8.83,-24.62 7,-9.57 16.3,-14.19 28.39,-14.19 12.77,0 21.59,5.09 27.06,15.53 3.25,6.28 5.11,14.08 5.51,23.28l-69.79 0zm37.22 -60.28c-19.29,0 -34.67,6.75 -45.78,20.1 -10.94,13.1 -16.47,30.23 -16.47,50.77 0,25.45 7.03,45.06 20.82,58.32 12.04,11.67 28.08,17.6 47.74,17.6 12.84,0 25.86,-2.75 38.68,-8.18l2.33 -0.97 0 -23.87 -5.5 2.75c-12.67,6.34 -24.29,9.53 -34.47,9.53 -13.81,0 -24.62,-4.76 -33.04,-14.66 -6.97,-8.13 -10.86,-18.12 -11.54,-29.63l94.79 0 0 -9.04c0,-17.76 -2.58,-32.32 -7.7,-43.24 -9.02,-19.58 -25.77,-29.48 -49.84,-29.48z"/>
   <polygon class="fil0" points="1875.03,894.71 1838.6,784.07 1813.27,784.02 1862.59,926.09 1887.42,926.09 1935.25,784.05 1911.25,784.01 "/>
   <path class="fil0" d="M1993.19 842.22c0.64,-9.14 3.6,-17.42 8.83,-24.62 7.02,-9.57 16.31,-14.19 28.39,-14.19 12.75,0 21.59,5.09 27.06,15.53 3.26,6.28 5.09,14.08 5.5,23.28l-69.78 0zm37.22 -60.28c-19.26,0 -34.68,6.75 -45.76,20.1 -10.95,13.1 -16.48,30.23 -16.48,50.77 0,25.45 7.01,45.06 20.82,58.32 12.02,11.67 28.09,17.6 47.72,17.6 12.87,0 25.85,-2.75 38.71,-8.18l2.31 -0.97 0 -23.87 -5.49 2.75c-12.68,6.34 -24.3,9.53 -34.5,9.53 -13.81,0 -24.6,-4.76 -33.01,-14.66 -6.98,-8.13 -10.86,-18.12 -11.56,-29.63l94.78 0 0 -9.04c0,-17.76 -2.58,-32.32 -7.68,-43.24 -9.01,-19.58 -25.79,-29.48 -49.85,-29.48z"/>
   <polygon class="fil0" points="2143.28,926.09 2167.4,926.09 2167.4,718.49 2143.28,718.49 "/>
   <path class="fil0" d="M2315.2 855.19c0,13 -3.15,24.44 -9.36,34.13 -7.54,11.69 -17.9,17.37 -31.65,17.37 -13.94,0 -24.41,-5.77 -31.95,-17.64 -6.04,-9.46 -9.1,-20.85 -9.1,-33.86 0,-13.01 3.18,-24.58 9.39,-34.39 7.36,-11.7 17.71,-17.39 31.66,-17.39 13.93,0 24.35,5.77 31.9,17.63 6.05,9.66 9.11,21.14 9.11,34.15zm-41.01 -73.25c-20.86,0 -37.46,7.35 -49.35,21.84 -11.01,13.38 -16.55,30.7 -16.55,51.41 0,20.73 5.54,37.96 16.57,51.18 12.05,14.47 28.66,21.8 49.33,21.8 20.63,0 37.24,-7.33 49.29,-21.8 11.04,-13.22 16.64,-30.44 16.64,-51.18 0,-20.72 -5.6,-38.04 -16.62,-51.46 -12.07,-14.47 -28.65,-21.8 -49.31,-21.8z"/>
   <path class="fil0" d="M2745.74 842.22c0.63,-9.14 3.59,-17.42 8.81,-24.62 6.99,-9.57 16.3,-14.19 28.39,-14.19 12.75,0 21.59,5.09 27.06,15.53 3.26,6.28 5.1,14.08 5.52,23.28l-69.77 0zm37.2 -60.28c-19.26,0 -34.67,6.75 -45.76,20.1 -10.92,13.1 -16.49,30.23 -16.49,50.77 0,25.45 7.03,45.06 20.84,58.32 12.01,11.67 28.08,17.6 47.73,17.6 12.84,0 25.87,-2.75 38.68,-8.18l2.34 -0.97 0 -23.87 -5.49 2.75c-12.69,6.34 -24.32,9.53 -34.5,9.53 -13.8,0 -24.62,-4.76 -33.02,-14.66 -6.99,-8.13 -10.86,-18.12 -11.54,-29.63l94.77 0 0 -9.04c0,-17.76 -2.6,-32.32 -7.71,-43.24 -9,-19.58 -25.78,-29.48 -49.85,-29.48z"/>
   <path class="fil0" d="M2932.63 781.42c-9.76,0 -18.24,3.74 -25.12,11.2 -1.46,1.63 -2.87,3.42 -4.11,5.32l0 -13.92 -23.52 0 1.24 28.43 0 113.64 24.12 0 0 -81.13c0,-12.03 2.82,-21.93 8.42,-29.45 5.38,-7.24 12.04,-10.77 20.29,-10.77 1.68,0 3.69,0.23 6.04,0.7 2.27,0.45 4.15,1.07 5.6,1.77l5.5 2.75 0 -24.61 -2.6 -0.85c-6.24,-2.09 -11.4,-3.08 -15.88,-3.08z"/>
   <path class="fil0" d="M3056.08 854.3c-5.22,-4.11 -13.33,-8.36 -24.88,-13.1 -13.28,-5.46 -18.36,-8.63 -20.31,-10.35 -3.37,-2.95 -5,-7.01 -5,-12.35 0,-4.71 1.79,-8.13 5.66,-10.75 4.23,-2.86 10.49,-4.34 18.58,-4.34 10.46,0 20.64,2.03 30.25,6.02l4.83 2 1.69 -20.97 -2.43 -1.13c-5.6,-2.5 -11.07,-4.4 -16.21,-5.6 -5.13,-1.21 -10.99,-1.8 -17.33,-1.8 -14.77,0 -26.7,3.36 -35.34,9.95 -9,6.85 -13.55,15.8 -13.55,26.61 0,11.98 4.77,21.88 14.27,29.44 5.35,4.27 15.23,9.41 30.17,15.71 8.47,3.7 12,5.99 13.5,7.25 4.39,3.83 6.54,8.81 6.54,15.2 0,6.26 -2.1,11.1 -6.43,14.82 -4.41,3.83 -11.2,5.77 -20.18,5.77 -5.62,0 -11.4,-0.66 -17.08,-2 -5.77,-1.32 -11.21,-3.18 -16.15,-5.52l-5.05 -2.32 -1.6 24.1 2.68 0.97c11.37,4.16 23.71,6.25 36.68,6.25 16.59,0 29.7,-4.1 38.92,-12.18 8.7,-7.54 13.09,-17.58 13.09,-29.89 0,-12.85 -5.14,-23.53 -15.32,-31.81z"/>
  </g>
 </g>
</svg>
